
        <svg xmlns="http://www.w3.org/2000/svg" xmlns:xlink="http://www.w3.org/1999/xlink" version="1.1" width="3204.4989775051126" 
        height="3204.4989775051126" viewBox="0 0 3204.4989775051126 3204.4989775051126">
			
			<g transform="scale(10.224948875255624) translate(10, 10)">
				<defs id="SvgjsDefs1507"></defs><g id="SvgjsG1508" featureKey="rootContainer" transform="matrix(5.867999999999999,0,0,5.867999999999999,0.29339622259140014,0)" fill="#00043c"><path xmlns="http://www.w3.org/2000/svg" d="M24.95 0a25 25 0 1 0 25 25 25 25 0 0 0-25-25zm0 46.91a22 22 0 1 1 22-22 22 22 0 0 1-22 21.99z"></path><path xmlns="http://www.w3.org/2000/svg" d="M24.95 3.65a21.3 21.3 0 1 0 21.3 21.3 21.33 21.33 0 0 0-21.3-21.3z"></path></g><g id="SvgjsG1509" featureKey="nameLeftFeature-0" transform="matrix(1.2004200088205703,0,0,1.2004200088205703,65.16805864096152,130.19727108747603)" fill="#ffffff"><path d="M4.64 20 l-4.78 -13.22 l3.54 0 l2.28 6.4 c0.18 0.46 0.36 1.26 0.5 2.1 c0.18 -0.82 0.36 -1.64 0.54 -2.1 l1.36 -3.74 l-1.02 -2.66 l3.4 0 l2.32 6.4 c0.16 0.4 0.34 1.1 0.5 1.84 c0.14 -0.74 0.3 -1.42 0.46 -1.84 l2.16 -6.4 l3.26 0 l-4.52 13.22 l-2.68 0 l-2.38 -6.54 c-0.14 0.48 -0.28 0.94 -0.42 1.34 l-1.84 5.2 l-2.68 0 z M19.14 20 l4.94 -13.22 l2.68 0 l5.46 13.22 l-3.4 0 l-0.9 -2.22 l-4.8 0 l-0.78 2.22 l-3.2 0 z M24.84 13 l-0.72 1.98 l2.66 0 l-0.8 -2.02 c-0.14 -0.34 -0.38 -1.02 -0.6 -1.72 c-0.22 0.74 -0.42 1.42 -0.54 1.76 z M32.18 9.66 l0 -2.88 l11.24 0 l0 2.88 l-3.94 0 l0 10.34 l-3.36 0 l0 -10.34 l-3.94 0 z M53.5 15.36 l3.06 0.86 c-0.38 2.3 -2.1 4.06 -5.62 4.06 c-4.64 0 -6.58 -3.04 -6.58 -7 c0 -4.26 2.3 -6.78 6.6 -6.78 c3.6 0 5.62 1.76 5.42 4.3 l-3.3 0.74 c0.08 -1.42 -0.42 -2.26 -2.2 -2.26 c-2.3 0 -2.98 1.34 -2.98 3.98 c0 2.92 0.9 4.24 2.96 4.24 c1.3 0 2.62 -0.56 2.64 -2.14 z M58.36 20 l0 -13.22 l3.36 0 l0 5.1 l5.4 0 l0 -5.1 l3.36 0 l0 13.22 l-3.36 0 l0 -5.22 l-5.4 0 l0 5.22 l-3.36 0 z"></path></g><g id="SvgjsG1510" featureKey="nameRightFeature-0" transform="matrix(1.2512698235155557,0,0,1.2512698235155557,151.29827436458618,129.51639093068962)" fill="#ffffff"><path d="M1.36 20 l0 -13.22 l4.4 0 l2.54 7.56 c0.1 0.32 0.32 1.04 0.54 1.84 c0.22 -0.82 0.42 -1.54 0.54 -1.88 l2.46 -7.52 l4.46 0 l0 13.22 l-3.26 0 l0 -5.06 c0 -0.98 0.06 -2.46 0.16 -3.86 c-0.44 1.36 -0.88 2.8 -1.2 3.72 l-1.78 5.2 l-2.8 0 l-1.86 -5.28 c-0.32 -0.9 -0.72 -2.16 -1.08 -3.38 c0.08 1.28 0.14 2.6 0.14 3.48 l0 5.18 l-3.26 0 z M21.98 20 l0 -5.4 l-4.62 -7.82 l3.96 0 l2.42 4.36 l2.3 -4.36 l3.72 0 l-4.42 7.92 l0 5.3 l-3.36 0 z M30.98 20 l0 -13.22 l5.22 0 c2.74 0 4.72 0.88 4.72 3.38 c0 1.24 -0.5 2.46 -1.86 2.84 l0 0.08 c1.78 0.32 2.38 1.72 2.38 3.02 c0 2.2 -1.72 3.9 -5.28 3.9 l-5.18 0 z M34.24 17.18 l1.76 0 c1.48 0 1.94 -0.56 1.94 -1.32 c0 -0.86 -0.58 -1.2 -1.64 -1.2 l-2.06 0 l0 2.52 z M34.24 11.82 l2.08 0 c0.74 0 1.18 -0.36 1.18 -1.12 c0 -0.78 -0.46 -1.1 -1.48 -1.1 l-1.78 0 l0 2.22 z M43.52 20 l0 -13.22 l3.36 0 l0 13.22 l-3.36 0 z M49.6 20 l0 -13.22 l5.42 0 c4.34 0 6.46 2.66 6.46 6.36 c0 3.56 -1.98 6.86 -6.44 6.86 l-5.44 0 z M52.96 17.18 l2 0 c1.98 0 2.98 -1.3 2.98 -3.9 c0 -2.54 -0.96 -3.68 -3.1 -3.68 l-1.88 0 l0 7.58 z"></path></g>
			</g>
		</svg>
	