<svg aria-hidden="true" style="position: absolute; width: 0; height: 0; overflow: hidden;" version="1.1" xmlns="http://www.w3.org/2000/svg" xmlns:xlink="http://www.w3.org/1999/xlink">
<defs>
<symbol id="icon-countries" viewBox="0 0 60 32">
<path fill="#ff9e00" style="fill: var(--color1, #ff9e00)" d="M53.923 2.909l-5.818-2.909h-5.818v2.953l-5.818 1.411h-1.455l-1.455-1.455h-1.454l-2.909 2.909v2.909h1.455v-1.454h1.455v2.909h-4.364l-1.455 1.455v1.454h2.909l1.455-1.455h1.455l1.454 1.455v2.924l2.909 2.895 1.455-1.455-1.455-1.455 1.455-1.455 1.454 1.455 1.455 4.364h1.455l1.455-2.909h1.455v1.455h1.455l2.909-2.909v-2.909h1.455l1.454-2.909v-2.909h1.455l1.455 1.455h1.455l2.909-2.909v-2.909z"></path>
<path fill="#ff9e00" style="fill: var(--color1, #ff9e00)" d="M49.559 21.818h-1.455l-1.454-1.455h-1.455v1.455l1.455 1.455h2.909z"></path>
<path fill="#ff9e00" style="fill: var(--color1, #ff9e00)" d="M51.014 23.273l-1.455 1.455h-1.454v2.909h2.909l1.455 1.455h1.455l1.455-2.909-2.909-2.909z"></path>
<path fill="#ff9e00" style="fill: var(--color1, #ff9e00)" d="M51.093 20.232h2.869v1.793h-2.869v-1.793z"></path>
<path fill="#ff9e00" style="fill: var(--color1, #ff9e00)" d="M24.765 0h-7.273v1.455l1.455 1.455v2.909l1.455 1.455h1.455v-1.455l2.909-2.909z"></path>
<path fill="#ff9e00" style="fill: var(--color1, #ff9e00)" d="M18.909 20.364l-1.455-1.455h-2.909l-2.909-1.455v-1.454h2.909l4.363-4.364v-1.454l-1.455-2.909h-2.909v2.938h-1.455l-1.455-1.484v-2.909h2.909v-1.454l-1.454-1.455h-11.636l-1.455 1.455v2.909h2.938l4.349 4.378v2.895l1.44 1.454v1.455l5.818 2.909v2.909l1.455 1.455v7.272h1.455v-2.909l4.364-4.363v-2.909l-1.455-1.455z"></path>
<path fill="#ff9e00" style="fill: var(--color1, #ff9e00)" d="M26.234 14.546l-1.455 1.455v2.909l4.364 1.455 1.454 7.272h1.455l4.364-7.273-2.909-2.909v-2.909z"></path>
</symbol>
<symbol id="icon-Employees" viewBox="0 0 35 32">
<path fill="#33446b" style="fill: var(--color2, #33446b)" d="M13.69 26.657h-1.947l1.065-8.515 4.215 1.682c0.684 0.279 1.183 0.884 1.308 1.616l0.002 0.013 0.3 1.81-4.634 1.543-0.308 1.853z"></path>
<path fill="#33446b" style="fill: var(--color2, #33446b)" d="M0 26.657l0.862-5.205c0.125-0.746 0.624-1.351 1.295-1.623l0.014-0.005 4.215-1.682 1.065 8.516z"></path>
<path fill="#ff9e00" style="fill: var(--color1, #ff9e00)" d="M8.534 19.197l1.061-1.061 1.061 1.061-1.061 1.061-1.061-1.061z"></path>
<path fill="#ff9e00" style="fill: var(--color1, #ff9e00)" d="M9.603 20.272l-1.065 6.387h2.129z"></path>
<path fill="#33446b" style="fill: var(--color2, #33446b)" d="M35.203 32l-1.065-6.387-6.386-2.129-1.065 8.516z"></path>
<path fill="#33446b" style="fill: var(--color2, #33446b)" d="M13.879 32l1.065-6.386 6.387-2.129 1.065 8.516z"></path>
<path fill="#ff9e00" style="fill: var(--color1, #ff9e00)" d="M23.467 24.53l1.061-1.061 1.061 1.061-1.061 1.061-1.061-1.061z"></path>
<path fill="#ff9e00" style="fill: var(--color1, #ff9e00)" d="M24.536 25.613l-1.065 6.386h2.129z"></path>
<path fill="#33446b" style="fill: var(--color2, #33446b)" d="M24.541 8.543c-2.129 0-5.322 1.692-5.322 4.258v4.258c0 2.565 3.193 5.322 5.322 5.322 2.065 0 5.131-2.608 5.302-5.109 0.011 0 0.021-4.173 0.021-4.471-0.001-2.566-3.194-4.258-5.323-4.258zM28.798 17.058c0 2.086-2.831 4.258-4.258 4.258s-4.258-2.172-4.258-4.258v-2.129h3.183c1.758-0.004 3.183-1.425 3.193-3.182v-0.001 1.043c0 0 0 0 0 0.001 0 1.175 0.953 2.128 2.128 2.128 0 0 0 0 0.001 0h-0v2.14z"></path>
<path fill="#33446b" style="fill: var(--color2, #33446b)" d="M11.812 3.672c0.628-0.383 1.022-0.937 1.022-1.544 0-1.171-1.447-2.129-3.236-2.129s-3.236 0.958-3.236 2.129c0 0.607 0.394 1.16 1.022 1.544-1.826 0.789-3.085 2.565-3.108 4.638l-0 0.003v2.331c0 2.565 3.193 6.386 5.322 6.386s5.322-3.821 5.322-6.386v-2.331c-0.023-2.076-1.282-3.852-3.075-4.628l-0.033-0.013zM9.598 15.967c-1.426 0-4.258-3.236-4.258-5.322v-1.065h1.065c0.001 0 0.003 0 0.004 0 1.761 0 3.189-1.428 3.189-3.189 0-0.002 0-0.003 0-0.005v0c0 0.001 0 0.003 0 0.004 0 1.761 1.428 3.189 3.189 3.189 0.002 0 0.003 0 0.005 0h1.064v1.065c0 2.085-2.831 5.322-4.258 5.322z"></path>
</symbol>
<symbol id="icon-language" viewBox="0 0 37 32">
<path fill="#33446b" style="fill: var(--color2, #33446b)" d="M33.332 0h-29.331c-2.204 0.003-3.991 1.786-4 3.989v18.619c0.010 2.203 1.796 3.986 4 3.989h29.332c2.204-0.003 3.991-1.786 4.001-3.989v-18.619c-0.010-2.203-1.796-3.986-4-3.99h-0zM18.666 23.937c-5.864-0.015-10.612-4.773-10.612-10.639 0-5.876 4.763-10.639 10.639-10.639s10.639 4.763 10.639 10.639c0 0 0 0 0 0v-0c-0.006 5.877-4.772 10.639-10.649 10.639-0.006 0-0.012 0-0.018 0h0.001z"></path>
<path fill="#33446b" style="fill: var(--color2, #33446b)" d="M29.322 25.351l-6.649 6.649v-7.195z"></path>
</symbol>
<symbol id="icon-professionals" viewBox="0 0 46 32">
<path fill="#33446b" style="fill: var(--color2, #33446b)" d="M22.913 19.931l-12.191-4.876v4.754c0 4.206 5.455 7.619 12.191 7.619s12.191-3.413 12.191-7.619v-4.754z"></path>
<path fill="#33446b" style="fill: var(--color2, #33446b)" d="M39.715 9.143c1.19 0.008 2.273 0.463 3.089 1.206l-0.004-0.003 3.024-1.202-22.913-9.143-22.912 9.143 22.912 9.143 12.249-4.891c0.176-2.38 2.146-4.244 4.553-4.252h0.001z"></path>
<path fill="#ff9e00" style="fill: var(--color1, #ff9e00)" d="M43.257 13.848c0 1.764-1.514 3.194-3.382 3.194s-3.382-1.43-3.382-3.194c0-1.764 1.514-3.194 3.382-3.194s3.382 1.43 3.382 3.194z"></path>
<path fill="#ff9e00" style="fill: var(--color1, #ff9e00)" d="M39.729 16.762l-1.524 15.238h3.048z"></path>
</symbol>
</defs>
</svg>
