<svg xmlns="http://www.w3.org/2000/svg" xmlns:xlink="http://www.w3.org/1999/xlink" width="13.623" height="15.477" viewBox="0 0 13.623 15.477">
  <defs>
    <clipPath id="clip">
      <use xlink:href="#fill"/>
    </clipPath>
  </defs>
  <g id="Group_54" data-name="Group 54" transform="translate(-1070 -33)">
    <g id="Ellipse_2" data-name="Ellipse 2" transform="translate(1070 33)" fill="none">
      <path d="M5.881,0A5.881,5.881,0,1,1,0,5.881,5.881,5.881,0,0,1,5.881,0Z" stroke="none"/>
      <path d="M 5.881041526794434 2.000001907348633 C 3.741031646728516 2.000001907348633 2.000001907348633 3.741031646728516 2.000001907348633 5.881041526794434 C 2.000001907348633 8.021051406860352 3.741031646728516 9.762081146240234 5.881041526794434 9.762081146240234 C 8.021051406860352 9.762081146240234 9.762081146240234 8.021051406860352 9.762081146240234 5.881041526794434 C 9.762081146240234 3.741031646728516 8.021051406860352 2.000001907348633 5.881041526794434 2.000001907348633 M 5.881041526794434 1.9073486328125e-06 C 9.129051208496094 1.9073486328125e-06 11.76208114624023 2.633031845092773 11.76208114624023 5.881041526794434 C 11.76208114624023 9.129051208496094 9.129051208496094 11.76208114624023 5.881041526794434 11.76208114624023 C 2.633031845092773 11.76208114624023 1.9073486328125e-06 9.129051208496094 1.9073486328125e-06 5.881041526794434 C 1.9073486328125e-06 2.633031845092773 2.633031845092773 1.9073486328125e-06 5.881041526794434 1.9073486328125e-06 Z" stroke="none" fill="#505152"/>
    </g>
    <g id="Rectangle_98" data-name="Rectangle 98" transform="matrix(0.799, -0.602, 0.602, 0.799, 1078.66, 43.531)" fill="#fff" stroke="#505152" stroke-width="2">
      <rect id="fill" width="1.548" height="6.191" rx="0.774" stroke="none"/>
      <path d="M0,1h1.547642469406128M1,0v6.190569877624512M1.547642469406128,5.190569877624512h-1.547642469406128M0.5476424694061279,6.190569877624512v-6.190569877624512" fill="none" clip-path="url(#clip)"/>
    </g>
  </g>
</svg>
